<?xml version="1.0" encoding="UTF-8" standalone="no"?>
<!DOCTYPE svg PUBLIC "-//W3C//DTD SVG 1.0//EN" "http://www.w3.org/TR/2001/REC-SVG-20010904/DTD/svg10.dtd">
<!-- Created with Inkscape (http://www.inkscape.org/) by Steadfast-->
<svg
   xmlns:svg="http://www.w3.org/2000/svg"
   xmlns="http://www.w3.org/2000/svg"
   version="1.0"
   width="900"
   height="476"
   id="svg2911">
  <defs
     id="defs2913" />
  <g
     id="layer1">
    <g
       transform="matrix(5.8495567,0,0,5.8495567,-1747.762,-1547.3978)"
       id="g2925">
      <path
         d="M 324.96991,313.30058 L 375.74491,279.14433 L 426.45866,313.30058 L 324.96991,313.30058 z"
         id="path235"
         style="fill:#3067bb;fill-opacity:1;fill-rule:nonzero;stroke:none" />
      <path
         d="M 381.60741,266.17183 L 372.43366,266.17058 L 372.43366,281.03058 L 350.92491,266.59183 L 350.92491,295.83933 L 360.10241,295.83933 L 360.10241,281.03058 L 381.60991,295.45183 L 381.60741,266.17183 z M 395.18741,288.91558 L 386.01366,288.91433 L 386.01366,303.77433 L 364.50491,289.33558 L 364.50491,318.58308 L 373.68241,318.58308 L 373.68241,303.77433 L 395.18991,318.19683 L 395.18741,288.91558 z"
         id="path237"
         style="fill:#b9bccb;fill-opacity:1;fill-rule:nonzero;stroke:none" />
      <path
         d="M 372.58741,281.03058 L 372.58741,281.31683 C 372.58741,281.31683 351.54241,267.19058 351.07741,266.87808 L 351.07741,295.68558 L 359.94991,295.68558 L 359.94991,280.74433 C 359.94991,280.74433 380.99241,294.85433 381.45616,295.16683 C 381.45616,294.60808 381.45491,266.62308 381.45491,266.32433 C 381.16491,266.32433 372.87616,266.32308 372.58741,266.32308 L 372.58741,281.03058 z M 386.16616,303.77433 L 386.16616,304.06058 C 386.16616,304.06058 365.12241,289.93433 364.65741,289.62183 L 364.65741,318.43058 L 373.52991,318.43058 L 373.52991,303.48808 C 373.52991,303.48808 394.57241,317.59933 395.03741,317.91058 C 395.03741,317.35183 395.03491,289.36683 395.03491,289.06808 C 394.74491,289.06808 386.45616,289.06683 386.16616,289.06683 L 386.16616,303.77433 z"
         id="path239"
         style="fill:#b9bccb;fill-opacity:1;fill-rule:nonzero;stroke:none" />
      <path
         d="M 300.49491,332.88683 L 303.76116,332.88683 L 309.81491,339.61808 L 309.81491,332.88683 L 313.09491,332.88683 L 313.09491,343.88933 L 309.81491,343.88933 L 303.76116,337.15933 L 303.76116,343.88933 L 300.49491,343.88933 L 300.49491,332.88683 z M 314.77241,338.42808 C 314.77241,336.75933 315.44116,335.36183 316.77616,334.24183 C 318.11116,333.11933 319.77616,332.55683 321.76491,332.55683 C 323.76616,332.55683 325.43616,333.11808 326.76991,334.23933 C 328.10616,335.36183 328.77366,336.75933 328.77366,338.43058 C 328.77366,340.10183 328.10616,341.49308 326.76991,342.60308 C 325.43616,343.71308 323.76616,344.26808 321.76491,344.26808 C 319.77616,344.26808 318.11116,343.71308 316.77616,342.60308 C 315.44116,341.49308 314.77241,340.10183 314.77241,338.43058 L 314.77241,338.42808 z M 318.20366,338.42808 C 318.20366,339.27558 318.55491,340.00183 319.25741,340.60558 C 319.95991,341.20933 320.79866,341.51433 321.76491,341.51433 C 322.75491,341.51433 323.59866,341.21183 324.29741,340.60808 C 324.99616,340.00433 325.34616,339.27558 325.34616,338.43058 C 325.34616,337.57308 324.99616,336.84058 324.29741,336.23558 C 323.59991,335.63183 322.75491,335.32808 321.76491,335.32808 C 320.78741,335.32808 319.94741,335.62933 319.24866,336.23433 C 318.55116,336.83808 318.20116,337.57308 318.20116,338.43058 L 318.20366,338.42808 z M 340.95741,343.88933 L 336.86741,343.88933 L 333.71741,339.66683 L 333.71741,343.88933 L 330.45116,343.88933 L 330.45116,332.88683 L 335.56366,332.88683 C 336.80741,332.88683 337.81366,333.18683 338.58116,333.78683 C 339.34991,334.38683 339.73616,335.24808 339.73616,336.36933 C 339.73616,337.13808 339.49116,337.79183 339.00241,338.32308 C 338.51491,338.85558 337.83991,339.21058 336.98241,339.38683 L 340.95741,343.88933 z M 333.71741,337.81933 L 334.05366,337.81933 C 334.16866,337.81933 334.28866,337.81308 334.40866,337.80433 C 334.89366,337.77183 335.33991,337.67058 335.74616,337.50058 C 336.15366,337.33058 336.35741,336.97808 336.35741,336.45058 C 336.35741,335.95808 336.16241,335.62183 335.77241,335.44558 C 335.38116,335.27058 334.94741,335.14683 334.47491,335.11308 C 334.34366,335.10433 334.21241,335.10933 334.08741,335.10433 C 333.96116,335.10058 333.83741,335.09683 333.71741,335.09683 L 333.71741,337.81933 z M 345.60991,343.88933 L 342.34491,343.88933 L 342.34491,332.88808 L 345.60991,332.88808 L 345.60991,343.88933 z M 351.54741,341.46558 L 355.50616,341.46558 L 355.50616,343.88933 L 348.28241,343.88933 L 348.28241,332.88683 L 351.54741,332.88683 L 351.54741,341.46558 z M 363.72616,335.74183 C 363.37491,335.48808 363.02366,335.29933 362.67866,335.18058 C 362.33116,335.06058 361.98616,334.99808 361.64491,334.99808 C 361.20616,334.99808 360.84866,335.08933 360.57491,335.27058 C 360.29991,335.45308 360.16116,335.68808 360.16116,335.97183 C 360.16116,336.23558 360.30616,336.44433 360.59741,336.59183 C 360.88991,336.73933 361.25491,336.87558 361.69491,336.99558 C 361.86991,337.05058 362.05866,337.10433 362.25616,337.15183 C 362.45366,337.20058 362.65866,337.26058 362.86741,337.32558 C 363.53616,337.53308 364.15241,337.84558 364.71241,338.25683 C 365.27241,338.66933 365.55366,339.32183 365.55366,340.21183 C 365.55366,340.33183 365.54616,340.46183 365.53116,340.59933 C 365.51366,340.73683 365.49366,340.87808 365.47241,341.01933 C 365.42991,341.25058 365.36991,341.47808 365.29866,341.69683 C 365.22866,341.91558 365.15241,342.09933 365.07616,342.24058 C 364.73741,342.81058 364.16991,343.27308 363.37866,343.62558 C 362.58616,343.97683 361.71616,344.15183 360.77116,344.15183 C 359.95866,344.15183 359.16241,344.04933 358.38116,343.84808 C 357.60241,343.64558 356.87991,343.33308 356.21991,342.91558 L 357.62116,340.62433 C 357.93866,340.86433 358.24866,341.06683 358.54491,341.22558 C 358.83991,341.38433 359.13991,341.50933 359.43616,341.59808 C 359.62241,341.64058 359.80491,341.67683 359.98116,341.70308 C 360.15616,341.73058 360.33866,341.74558 360.52491,341.74558 C 361.00991,341.74558 361.39741,341.64683 361.68866,341.45058 C 361.97991,341.25308 362.12491,340.98683 362.12491,340.65683 C 362.12491,340.33933 361.96241,340.09933 361.63866,339.94058 C 361.31366,339.78183 360.91241,339.63558 360.44116,339.50183 C 360.27866,339.45933 360.10866,339.41433 359.93991,339.37183 C 359.76866,339.32933 359.59866,339.27683 359.43616,339.22183 C 358.75491,339.02433 358.13366,338.72433 357.57366,338.32308 C 357.01241,337.92308 356.73116,337.25933 356.73116,336.33433 C 356.73116,335.22558 357.12866,334.32933 357.91866,333.64808 C 358.70991,332.96558 359.74866,332.62308 361.03491,332.62308 C 361.25366,332.62308 361.47866,332.63183 361.70366,332.64933 C 361.92866,332.66683 362.15741,332.69183 362.38866,332.72433 C 362.83991,332.78933 363.28991,332.88933 363.73991,333.01933 C 364.18866,333.15308 364.62616,333.31808 365.04491,333.51558 L 363.72616,335.74183 z M 374.92241,332.88683 L 378.97991,332.88683 L 373.96616,338.10058 L 379.44241,343.88933 L 375.18616,343.88933 L 370.89866,339.12308 L 370.89866,343.88933 L 367.63241,343.88933 L 367.63241,332.88683 L 370.89866,332.88683 L 370.89866,337.42308 L 374.92241,332.88683 z M 389.11616,332.88683 L 392.38116,332.88683 L 398.43491,339.61808 L 398.43491,332.88683 L 401.71616,332.88683 L 401.71616,343.88933 L 398.43491,343.88933 L 392.38116,337.15933 L 392.38116,343.88933 L 389.11616,343.88933 L 389.11616,332.88683 z M 407.65366,343.88933 L 404.38741,343.88933 L 404.38741,332.88808 L 407.65366,332.88808 L 407.65366,343.88933 z M 419.01241,336.63058 C 418.63991,336.23558 418.21741,335.93558 417.74991,335.73308 C 417.28366,335.52933 416.77991,335.42683 416.24241,335.42683 C 415.24241,335.42683 414.40991,335.70308 413.74991,336.25058 C 413.08991,336.80058 412.75991,337.50058 412.75991,338.34683 C 412.75991,339.28058 413.07991,340.02933 413.71616,340.58183 C 414.35491,341.13683 415.21366,341.41558 416.29241,341.41558 C 416.77366,341.41558 417.24491,341.31683 417.69866,341.12058 C 418.15616,340.92183 418.59491,340.63433 419.01241,340.26058 L 419.01241,343.64183 C 418.89366,343.67683 418.77366,343.71058 418.65741,343.74308 C 418.54116,343.77558 418.42366,343.81183 418.30366,343.84183 C 417.94241,343.92933 417.57866,344.00558 417.22366,344.07058 C 416.86616,344.13683 416.49366,344.17183 416.10991,344.17183 C 414.19866,344.17183 412.58866,343.62058 411.28616,342.52183 C 409.98241,341.42183 409.33116,340.06308 409.33116,338.44808 C 409.33116,336.79808 409.98866,335.41933 411.30116,334.31433 C 412.61366,333.20808 414.25241,332.65558 416.20741,332.65558 C 416.61491,332.65558 417.04366,332.70183 417.49366,332.79433 C 417.94366,332.88808 418.45116,333.03058 419.01241,333.21683 L 419.01241,336.63058 z M 428.39741,332.88683 L 432.45366,332.88683 L 427.43866,338.10058 L 432.91616,343.88933 L 428.66116,343.88933 L 424.37241,339.12308 L 424.37241,343.88933 L 421.10741,343.88933 L 421.10741,332.88683 L 424.37241,332.88683 L 424.37241,337.42308 L 428.39741,332.88683 z M 437.32991,335.31308 L 437.32991,337.14308 L 441.03741,337.14308 L 441.03741,339.56683 L 437.32991,339.56683 L 437.32991,341.46558 L 441.23741,341.46558 L 441.23741,343.88933 L 434.06366,343.88933 L 434.06366,332.88683 L 441.23741,332.88683 L 441.23741,335.31308 L 437.32991,335.31308 z M 446.97491,341.46558 L 450.93366,341.46558 L 450.93366,343.88933 L 443.70866,343.88933 L 443.70866,332.88683 L 446.97491,332.88683 L 446.97491,341.46558 z"
         id="path241"
         style="fill:#231f20;fill-opacity:1;fill-rule:nonzero;stroke:none" />
    </g>
  </g>
</svg>
